<svg version="1.1" id="Layer_1" xmlns="http://www.w3.org/2000/svg" xmlns:xlink="http://www.w3.org/1999/xlink" x="0px" y="0px"
	 width="100%" viewBox="0 0 528 528" enable-background="new 0 0 528 528" xml:space="preserve">
<path fill="#000000" opacity="1.000000" stroke="none" 
	d="
M370.821350,254.012909 
	C392.354767,260.076172 413.506531,266.005219 434.649719,271.964539 
	C436.994324,272.625336 439.588470,272.895844 439.354645,276.557678 
	C439.143707,279.861328 436.940125,279.967834 434.611481,280.504211 
	C403.790985,287.603119 373.309113,296.017212 342.774200,304.224731 
	C341.352295,304.606964 339.809296,304.737122 338.468842,306.601196 
	C351.628021,329.960419 366.344818,352.664764 379.956421,376.305725 
	C355.928711,363.458893 333.965332,347.530731 310.133392,333.417023 
	C306.808594,343.956787 303.524902,353.852661 300.569092,363.845490 
	C294.811340,383.311066 288.873993,402.729767 284.213135,422.502533 
	C283.734680,424.532196 283.125031,426.287262 280.433594,426.305908 
	C277.428650,426.326691 277.074463,424.333374 276.541443,422.112518 
	C270.013397,394.914490 262.636169,367.952942 253.843384,341.391357 
	C252.815826,338.287292 252.170776,335.013428 249.879730,331.617920 
	C227.583832,346.469513 205.481461,361.192200 183.379089,375.914886 
	C183.023712,375.611847 182.668350,375.308838 182.312973,375.005798 
	C195.743546,352.441193 209.174118,329.876617 222.829330,306.934601 
	C217.438156,303.698029 211.956268,302.933594 206.801590,301.482422 
	C180.528183,294.085754 154.183609,286.942200 127.636238,280.577789 
	C125.182129,279.989471 122.686691,279.882538 122.658012,276.271729 
	C122.628738,272.584900 125.413620,272.492676 127.685417,271.904327 
	C157.814163,264.101837 187.591400,255.078308 217.393921,246.143356 
	C218.951294,245.676453 220.725693,245.589691 222.435944,243.527817 
	C209.628540,221.961044 195.358688,200.969345 182.332626,178.910126 
	C205.402695,192.229019 227.341522,207.206757 250.975006,220.990265 
	C253.490250,212.644730 255.790604,205.068115 258.057037,197.481339 
	C264.009003,177.557205 270.057800,157.664780 274.952362,137.435989 
	C275.956238,133.287018 275.400269,131.265503 271.070801,130.355728 
	C266.037445,129.298035 262.092346,126.179893 258.300873,122.840179 
	C255.787811,120.626549 255.635483,118.817833 258.020050,116.237511 
	C262.891510,110.966179 262.760345,110.844978 268.445679,115.136993 
	C271.060883,117.111290 272.141541,117.597992 276.421539,118.520409 
	C276.421539,112.832695 276.820984,107.247009 276.249054,101.762627 
	C275.972778,99.113091 272.392731,98.985634 270.224030,97.909988 
	C258.338165,92.014793 254.644150,78.841965 262.082581,68.574898 
	C264.512207,65.221359 267.757843,62.888149 271.692780,61.750946 
	C274.975983,60.802101 276.988678,59.275040 276.658661,55.500957 
	C276.258698,50.927280 279.673737,51.665421 282.425690,51.610596 
	C285.309021,51.553150 288.537109,51.232712 288.134644,55.639832 
	C287.804138,59.258663 289.610382,60.688530 292.843994,61.337368 
	C294.612885,61.692310 296.324463,62.484612 297.971588,63.269272 
	C306.227234,67.202217 306.340729,68.149590 300.876495,75.314087 
	C298.886963,77.922691 297.314087,78.314240 294.859467,76.120857 
	C293.269806,74.700363 291.427612,73.513023 288.651855,73.024261 
	C287.803162,78.244316 288.102051,83.330498 288.473236,88.357956 
	C288.674957,91.090019 291.599121,91.000099 293.513245,91.712181 
	C301.826019,94.804619 307.523926,100.117027 308.262360,109.379097 
	C308.996063,118.582344 303.451721,126.589142 293.831848,129.728653 
	C289.744812,131.062485 288.489227,132.912216 287.924835,137.321442 
	C286.485962,148.561859 291.874420,158.064545 294.650177,168.150467 
	C298.886383,183.542908 304.177277,198.645187 309.028046,213.868225 
	C309.630127,215.757736 310.029236,217.759399 312.230621,219.607773 
	C335.109772,206.404663 356.851959,190.864059 380.040741,177.768173 
	C380.461884,178.170700 380.883026,178.573212 381.304199,178.975723 
	C367.338104,200.440933 353.372040,221.906143 338.992218,244.007248 
	C349.685760,248.447388 360.195648,250.764984 370.821350,254.012909 
M238.257401,245.897858 
	C206.281708,255.999359 173.877884,264.648529 141.519913,273.453186 
	C141.604523,273.873718 141.689133,274.294220 141.773743,274.714752 
	C145.413025,274.714752 149.052322,274.714539 152.691605,274.714752 
	C179.158981,274.716400 205.626450,274.689484 232.093658,274.755096 
	C235.502853,274.763550 237.464355,274.269226 237.927673,270.038757 
	C238.655502,263.393005 241.115417,257.177856 245.404633,251.805603 
	C246.794754,250.064453 249.827698,248.720917 247.626312,245.564377 
	C245.545792,242.581100 243.179718,244.719955 240.912704,245.092194 
	C240.259811,245.199387 239.628708,245.439377 238.257401,245.897858 
M414.763275,271.884583 
	C412.511810,271.300629 410.251556,270.748596 408.010284,270.127838 
	C385.099396,263.782379 362.186615,257.443604 339.290009,251.046982 
	C336.773834,250.344025 334.393311,249.627167 332.561188,252.240967 
	C329.697571,256.326324 326.522400,260.243561 324.110718,264.583038 
	C320.934967,270.297241 323.726044,274.713287 330.102661,274.719299 
	C353.075623,274.740906 376.048615,274.740112 399.021576,274.746338 
	C407.227905,274.748566 415.434235,274.746704 423.640564,274.746704 
	C423.655853,274.548309 423.671143,274.349945 423.686432,274.151550 
	C420.970367,273.477112 418.254303,272.802673 414.763275,271.884583 
M288.928558,258.298004 
	C286.921783,257.377197 284.777771,257.137634 282.608826,257.047058 
	C269.987274,256.519836 260.824005,265.707703 261.203400,278.502563 
	C261.552185,290.265411 271.697296,298.859558 283.836060,297.675232 
	C292.237274,296.855560 299.629333,290.094482 301.423218,281.589355 
	C303.421783,272.113831 299.217468,263.882507 288.928558,258.298004 
M279.900177,380.500000 
	C279.887543,362.188477 279.747375,343.875488 279.951904,325.566406 
	C280.003143,320.984131 278.439178,318.797394 273.913757,318.399933 
	C269.224304,317.988098 264.856293,316.409698 260.680939,314.235809 
	C259.319458,313.527008 257.872803,311.848724 256.237366,313.455078 
	C254.864914,314.803131 255.623016,316.518341 255.995987,318.164856 
	C257.682861,325.611664 259.304443,333.073730 260.888489,340.543243 
	C266.433136,366.689087 273.121094,392.557983 279.901276,419.436371 
	C279.901276,406.132812 279.901276,393.816406 279.900177,380.500000 
M255.898392,238.574799 
	C255.599808,239.669998 254.982819,240.727539 255.569275,242.162292 
	C261.718384,238.694977 268.048218,235.674789 275.157959,235.231461 
	C279.229797,234.977554 279.916718,232.814484 279.909241,229.319794 
	C279.850189,201.678558 279.919128,174.037048 279.918579,146.395630 
	C279.918549,144.886047 280.418213,143.045685 277.898468,142.076431 
	C270.595337,174.183289 263.349609,206.037811 255.898392,238.574799 
M306.984619,228.540237 
	C303.066498,231.403152 298.379578,233.226318 294.766052,237.152054 
	C299.302887,239.178635 303.539246,240.972305 306.749512,244.111923 
	C310.033020,247.323196 312.049011,246.358459 314.842712,243.438690 
	C327.251282,230.470123 339.813446,217.646713 352.438995,204.888535 
	C356.900330,200.380325 361.700470,196.207382 366.345886,191.881363 
	C366.013794,191.546478 365.681702,191.211609 365.349609,190.876724 
	C346.388336,203.752335 327.125641,216.159668 306.984619,228.540237 
M310.389496,327.064484 
	C327.805542,338.670624 345.221619,350.276733 362.637695,361.882874 
	C362.967407,361.489838 363.297089,361.096832 363.626801,360.703827 
	C361.720764,359.091949 359.659332,357.630249 357.933105,355.844543 
	C343.230347,340.635468 328.601471,325.355011 313.903564,310.141205 
	C312.735992,308.932617 311.458496,306.384857 309.532074,307.927307 
	C305.312866,311.305603 300.393494,313.642426 295.419830,316.991669 
	C300.697296,320.546814 305.242401,323.608582 310.389496,327.064484 
M219.461945,334.962433 
	C228.022354,326.107941 236.609543,317.278961 245.109894,308.367188 
	C246.194336,307.230255 248.204071,305.843445 247.325882,304.212646 
	C244.559448,299.075378 241.366989,294.167542 238.271912,289.059479 
	C235.727127,291.417267 202.833618,348.145447 201.646255,353.227264 
	C207.418579,347.306091 213.190918,341.384888 219.461945,334.962433 
M246.309128,267.885193 
	C243.117249,283.560913 249.023422,297.717407 259.881195,300.169525 
	C259.615631,297.663513 257.753082,296.096832 256.533783,294.205566 
	C252.834381,288.467346 250.643631,282.277985 251.302261,275.403656 
	C252.751373,260.278625 262.105896,251.789368 275.650085,246.968353 
	C277.519836,246.302826 279.654175,246.221268 281.122009,244.468002 
	C279.247162,243.417389 277.427155,243.386871 275.589417,243.372604 
	C262.360718,243.269913 251.669189,251.963196 246.309128,267.885193 
M294.656616,113.854416 
	C295.536255,109.144043 294.131256,105.900856 288.577881,104.655312 
	C288.107666,109.478523 287.743073,113.895737 288.796265,118.303108 
	C292.137360,118.624649 293.353424,116.712967 294.656616,113.854416 
M276.622375,81.085457 
	C276.327484,78.586060 277.444427,75.869431 275.520630,73.367622 
	C272.519409,74.445992 271.316162,76.536484 271.391174,79.442543 
	C271.466217,82.348602 272.779541,84.369690 275.570953,85.194534 
	C276.978424,84.233765 276.503387,82.978264 276.622375,81.085457 
z"/>
<path fill="#000000" opacity="1.000000" stroke="none" 
	d="
M378.321136,165.698547 
	C359.762299,149.569183 338.309998,139.646576 315.243011,132.937012 
	C315.977448,128.581070 318.322327,125.694633 320.145020,122.556564 
	C321.402100,120.392334 323.169464,121.083359 324.962097,121.615150 
	C360.068848,132.029587 389.204803,151.180008 411.177460,180.718964 
	C423.030884,196.654053 431.512665,214.271667 436.967682,233.369278 
	C439.835297,243.408478 438.285461,246.652206 427.402313,251.391602 
	C420.441559,217.556778 404.941101,188.582291 378.321136,165.698547 
z"/>
<path fill="#000000" opacity="1.000000" stroke="none" 
	d="
M204.912628,134.812561 
	C215.134369,129.424072 225.556351,125.521896 236.099228,121.848557 
	C240.007401,120.486877 242.393982,121.050789 244.029327,124.913841 
	C245.050949,127.327103 246.393539,129.604477 247.869461,132.483978 
	C186.770416,149.991150 149.712433,189.826279 135.470718,251.050842 
	C127.264656,249.628616 123.232445,243.576630 125.389626,235.757477 
	C137.707001,191.110428 164.381332,157.722519 204.912628,134.812561 
z"/>
<path fill="#000000" opacity="1.000000" stroke="none" 
	d="
M235.574615,432.410095 
	C203.011414,421.885559 175.863174,404.041168 154.580765,377.553436 
	C141.382339,361.126923 132.053665,342.665680 125.486900,322.708527 
	C124.557617,319.884338 125.009605,317.905151 127.233871,316.126984 
	C129.679398,314.171967 132.089859,312.173065 135.408813,309.464233 
	C152.438614,367.613098 189.560043,405.072632 247.262756,421.577423 
	C246.051529,430.121002 241.703522,434.268402 235.574615,432.410095 
z"/>
<path fill="#000000" opacity="1.000000" stroke="none" 
	d="
M405.311279,381.282532 
	C383.737885,406.076508 357.308014,422.698181 326.411285,432.519592 
	C322.576538,433.738556 320.144165,433.617401 318.539246,429.548096 
	C317.575470,427.104431 316.092346,424.865540 314.458160,421.817566 
	C372.886719,405.491058 410.454681,368.257477 427.405212,310.135834 
	C431.864288,311.896149 434.562195,315.055481 437.373474,318.012421 
	C439.100006,319.828400 437.805267,321.825012 437.214050,323.657257 
	C430.382965,344.828827 420.041443,364.070038 405.311279,381.282532 
z"/>
<path fill="#000000" opacity="1.000000" stroke="none" 
	d="
M124.958755,255.717224 
	C128.195938,260.101044 123.272606,260.662567 121.937294,262.785736 
	C120.714470,264.730072 118.880348,264.823914 116.822815,263.275238 
	C110.600029,258.591400 103.766296,256.686432 96.186035,259.663239 
	C90.578636,261.865234 87.194290,266.029846 85.225586,272.222870 
	C90.553383,273.268951 95.352074,272.610870 100.095924,272.774445 
	C102.890907,272.870819 105.509331,272.785309 105.354637,276.871216 
	C105.203629,280.859924 102.423965,280.144501 100.027161,280.276093 
	C95.007660,280.551697 89.913948,279.775818 84.740273,280.749146 
	C85.567642,283.461578 87.349762,282.705170 88.652237,282.737213 
	C92.981392,282.843750 97.315384,282.829254 101.646179,282.767303 
	C104.494217,282.726562 105.374077,284.167786 105.346397,286.820068 
	C105.318230,289.518921 103.870621,290.256805 101.537903,290.247864 
	C96.415115,290.228241 91.292198,290.241791 86.121552,290.241791 
	C86.920311,298.819611 96.227089,305.636353 105.086220,304.514832 
	C108.547005,304.076721 112.266891,303.542542 114.779335,300.943634 
	C118.566597,297.026031 121.592453,298.129517 124.743919,301.542755 
	C125.406624,302.260498 126.299759,302.765503 127.380295,303.593475 
	C123.839417,309.182281 118.953903,312.229828 113.407867,314.035675 
	C96.124939,319.663208 79.381767,311.334656 73.134033,294.206726 
	C72.437080,292.296082 72.055016,290.217102 69.372322,290.330414 
	C66.551582,290.449615 64.996849,289.370239 64.975586,286.310272 
	C64.954468,283.271515 66.863548,282.800842 69.218903,282.650299 
	C69.873108,282.608459 70.560356,282.451538 70.756638,281.583618 
	C70.420868,279.976654 69.023438,280.353027 67.975288,280.270691 
	C65.803459,280.100098 65.185356,278.769043 65.187798,276.885254 
	C65.190392,274.891083 65.634453,273.041504 68.052681,273.005310 
	C71.022919,272.960876 72.305534,271.584808 73.222801,268.763794 
	C80.967407,244.945175 110.172058,241.934784 124.958755,255.717224 
z"/>
<path fill="#000000" opacity="1.000000" stroke="none" 
	d="
M297.224121,457.640381 
	C301.069733,457.946991 300.358612,460.489349 300.132050,462.525360 
	C299.874512,464.839722 297.907867,464.591553 296.257477,464.595795 
	C292.763214,464.604828 289.268890,464.578827 285.774567,464.566925 
	C283.457916,464.559021 281.964661,465.433380 281.953430,468.323975 
	C286.551758,469.561127 291.193909,468.615662 295.756836,468.881897 
	C298.295441,469.030090 300.330933,469.309967 300.333008,472.677948 
	C300.335083,476.019653 298.445129,476.448212 295.812622,476.395721 
	C292.316406,476.325989 288.788818,476.673035 285.326721,476.324310 
	C280.385376,475.826630 278.334808,478.205566 277.728241,483.678925 
	C283.412506,483.678925 288.970001,483.657623 294.527252,483.684937 
	C300.050201,483.712097 301.336212,485.340454 300.229401,490.594604 
	C299.917877,492.073456 299.341187,493.175873 297.735657,493.179565 
	C284.643951,493.209778 271.552155,493.196594 257.831635,493.196594 
	C259.817688,486.899261 264.536560,482.897217 266.382050,477.450623 
	C265.147003,475.931549 263.532898,476.420837 262.130493,476.366699 
	C259.651337,476.271088 259.078369,474.751984 259.063782,472.708740 
	C259.048859,470.615021 259.833038,469.123596 262.158234,468.986420 
	C263.819366,468.888397 265.485870,468.885010 267.149017,468.816132 
	C268.711243,468.751434 269.691162,468.032013 269.629089,466.356628 
	C269.566895,464.675964 268.241852,464.716461 267.092194,464.676758 
	C265.599152,464.625183 264.098846,464.753204 262.607941,464.678619 
	C260.653748,464.580780 258.944794,464.144623 258.990845,461.585724 
	C259.030762,459.370087 259.421936,457.618286 262.212555,457.572662 
	C263.863098,457.545685 265.535034,457.323822 267.251434,456.022003 
	C265.223755,449.472900 261.108276,443.877319 256.874115,436.990173 
	C262.960052,437.488892 268.745239,434.648407 272.484314,438.746216 
	C275.792206,442.371490 277.128174,447.796112 279.664032,453.117279 
	C281.481354,449.576691 283.404694,446.790314 284.389740,443.704407 
	C286.263397,437.834778 290.179596,436.108582 295.831329,436.885834 
	C297.440857,437.107178 299.166168,436.632721 301.170929,438.124512 
	C298.600159,444.321991 293.679871,449.506683 291.542175,455.756500 
	C293.056946,458.096924 295.057220,457.416107 297.224121,457.640381 
z"/>
<path fill="#000000" opacity="1.000000" stroke="none" 
	d="
M473.106018,281.208649 
	C470.726929,281.994476 471.048889,282.754456 472.902893,282.903473 
	C475.715637,283.129517 478.555054,283.024078 481.383209,283.056824 
	C483.955170,283.086609 485.345123,284.099701 485.332153,286.957245 
	C485.319763,289.690369 483.877716,290.696045 481.595093,290.303680 
	C472.995361,288.825317 467.751709,292.187225 465.718384,300.695282 
	C465.384705,302.091461 463.942444,303.111938 464.090179,305.663940 
	C470.913025,305.663940 477.814789,305.889893 484.693024,305.585632 
	C489.389252,305.377899 490.419525,307.595123 490.105347,311.625031 
	C489.892426,314.355988 488.617645,315.363495 485.953491,315.352020 
	C473.305115,315.297607 460.655823,315.283661 448.007965,315.387207 
	C444.976013,315.412018 443.381226,313.660309 442.283264,311.371246 
	C440.949066,308.589691 443.808868,308.090454 445.212311,307.031219 
	C449.568512,303.743408 452.933838,299.728882 455.037384,294.684723 
	C455.928101,292.548859 456.117615,290.636871 453.025421,290.442139 
	C450.498657,290.282959 447.816040,290.608795 447.948273,286.746490 
	C448.087280,282.687073 451.117432,283.217163 453.689453,282.925720 
	C454.324402,282.853790 454.946381,282.667175 456.551178,282.325012 
	C453.378937,280.098175 447.697845,283.127350 447.979248,277.140686 
	C448.222290,271.970337 453.125305,274.888062 455.368408,272.643799 
	C453.792633,264.666748 447.349030,260.163147 442.022430,255.046707 
	C447.005676,247.979156 448.543701,247.636551 454.931396,252.104736 
	C461.110687,256.427185 465.659332,262.112396 468.057312,269.260071 
	C469.198456,272.661407 470.964386,274.140869 474.563354,273.741211 
	C476.864075,273.485718 479.217865,273.727692 481.547516,273.707703 
	C483.902161,273.687500 485.252106,274.514282 485.333466,277.167725 
	C485.421265,280.029602 484.064819,281.068268 481.451752,281.081146 
	C478.789154,281.094299 476.126801,281.143280 473.106018,281.208649 
z"/>
<path fill="#000000" opacity="1.000000" stroke="none" 
	d="
M425.117554,136.907990 
	C426.282288,139.179840 427.705261,140.737717 429.293396,142.255447 
	C433.406830,146.186554 435.108459,150.988220 433.938171,156.847992 
	C431.958282,157.034790 429.965454,156.519348 428.427063,158.356903 
	C427.183807,159.841904 425.420898,160.891861 424.023224,162.025528 
	C421.556183,161.369293 420.655273,159.438873 419.328705,158.021378 
	C417.660980,156.239365 416.111145,154.444458 413.542908,156.717209 
	C411.120331,158.861053 413.374939,160.175476 414.368073,161.730865 
	C414.707458,162.262405 415.001160,162.823090 415.344177,163.419937 
	C410.262512,164.877899 405.690796,162.758011 402.678772,157.422668 
	C401.549164,155.421738 400.815948,153.169632 400.102905,150.966980 
	C398.821655,147.009018 401.924286,146.475540 404.473511,145.981262 
	C407.461853,145.401871 407.658661,147.469849 407.410675,149.728607 
	C407.364532,150.148773 407.687744,150.609467 407.900299,151.224609 
	C411.538849,149.992493 411.841370,148.022598 410.391357,144.743668 
	C407.504761,138.216293 409.100922,133.588303 414.469757,132.299469 
	C418.842590,131.249756 422.139282,133.458298 425.117554,136.907990 
M424.402069,152.423233 
	C425.761993,151.675522 427.107880,150.842377 425.776825,149.081604 
	C424.848724,147.853836 423.694336,148.373825 422.831329,149.216812 
	C421.175690,150.834106 422.306152,151.731506 424.402069,152.423233 
z"/>
<path fill="#000000" opacity="1.000000" stroke="none" 
	d="
M136.959595,145.825027 
	C140.936066,146.507889 144.396500,147.860504 148.381134,147.488876 
	C147.306412,143.332123 143.407883,141.199020 141.933228,137.624237 
	C146.630035,132.014648 147.178116,132.041595 151.553452,137.470688 
	C155.204147,142.000610 158.998672,146.414978 162.627869,150.961639 
	C163.676956,152.275925 165.831192,153.488525 164.451065,155.589294 
	C163.152283,157.566238 161.366837,159.036575 158.609329,158.535080 
	C154.552444,157.797256 150.469177,157.204300 145.858459,156.463013 
	C146.766098,160.512024 150.355530,162.197144 151.547287,165.506012 
	C150.555771,167.700516 148.524216,168.723709 146.151291,169.859024 
	C140.362595,164.364670 135.570908,157.976288 130.503586,151.860504 
	C128.254501,149.146072 130.843781,146.592911 136.959595,145.825027 
z"/>
<path fill="#000000" opacity="1.000000" stroke="none" 
	d="
M411.403381,418.284851 
	C411.041992,416.950836 410.757965,415.984711 410.676056,415.001740 
	C410.327667,410.820496 408.933899,408.428955 404.043365,410.109863 
	C402.307251,410.706543 399.948273,411.382965 398.282227,410.017517 
	C396.848785,408.842712 396.649139,406.807526 396.839050,404.931335 
	C397.039978,402.946198 398.685120,402.949585 400.133270,402.570374 
	C407.393616,400.669128 407.490875,400.637543 406.931702,393.545807 
	C406.684418,390.409271 408.580109,390.011902 410.854858,389.658173 
	C413.050964,389.316681 414.905731,389.420410 415.190948,392.236816 
	C415.439087,394.687469 415.568542,397.174622 417.333649,399.407928 
	C419.258698,399.137390 421.268250,399.081573 423.137573,398.540802 
	C426.188721,397.658203 427.933990,397.765533 428.664948,401.657623 
	C429.414368,405.648132 427.516602,406.371521 424.517548,406.540894 
	C419.342926,406.833130 416.870514,408.651886 418.243469,414.539978 
	C419.372803,419.383514 416.650970,420.829010 411.403381,418.284851 
z"/>
<path fill="#000000" opacity="1.000000" stroke="none" 
	d="
M151.842285,420.308258 
	C144.017014,422.346466 137.749954,418.800446 134.240402,410.609558 
	C135.479706,408.758301 137.473679,407.969666 139.424469,407.102112 
	C142.034943,408.223602 142.201080,411.306030 144.318390,412.708557 
	C145.729279,413.643097 147.205109,414.937561 148.789139,413.564240 
	C150.694519,411.912323 148.885300,410.652985 147.878143,409.412018 
	C147.669174,409.154541 147.425919,408.921692 147.179611,408.698242 
	C143.757156,405.593353 141.331772,402.179138 143.756744,397.327576 
	C145.891174,393.057251 149.703384,392.220428 153.913528,392.764496 
	C158.793488,393.395172 162.415161,396.346619 163.893311,400.811127 
	C165.171936,404.672974 161.165436,404.355927 159.060089,405.438019 
	C157.494034,403.610046 156.209381,401.900665 154.698456,400.422546 
	C153.730392,399.475433 152.348511,398.897644 151.130829,400.103882 
	C149.843750,401.378845 150.698578,402.543365 151.620880,403.579498 
	C152.172699,404.199402 152.817596,404.735565 153.407043,405.322998 
	C158.908478,410.806061 158.543228,415.349976 151.842285,420.308258 
z"/>
<path fill="#000000" opacity="1.000000" stroke="none" 
	d="
M143.311508,250.362000 
	C144.891052,246.774750 147.346222,245.966431 150.377396,247.471054 
	C152.700104,248.624023 153.881561,250.692719 152.786041,253.279800 
	C151.646637,255.970505 149.300354,256.882355 146.595016,256.108795 
	C144.048248,255.380585 142.938248,253.404190 143.311508,250.362000 
z"/>
<path fill="#000000" opacity="1.000000" stroke="none" 
	d="
M152.214706,305.796875 
	C150.768738,309.475403 148.492004,310.932312 145.143845,309.056122 
	C142.857895,307.775146 142.077881,305.512939 143.168259,303.082306 
	C144.381378,300.378021 146.747162,299.787659 149.398926,300.715790 
	C151.519714,301.458069 152.373672,303.186646 152.214706,305.796875 
z"/>
<path fill="#000000" opacity="1.000000" stroke="none" 
	d="
M257.063477,150.298523 
	C253.448074,149.809647 252.022232,147.837097 252.527145,144.754196 
	C252.954987,142.141922 254.878265,140.834579 257.466919,140.839142 
	C259.897919,140.843430 261.665924,142.256821 262.042267,144.567596 
	C262.585754,147.904160 260.800110,149.822891 257.063477,150.298523 
z"/>
<path fill="#000000" opacity="1.000000" stroke="none" 
	d="
M409.870972,249.680145 
	C411.979706,246.698029 414.397095,245.970901 417.234100,247.883560 
	C419.276184,249.260300 419.857208,251.263565 418.789795,253.480469 
	C417.647247,255.853378 415.528809,256.751526 413.035187,256.169617 
	C409.762207,255.405899 409.240540,252.945465 409.870972,249.680145 
z"/>
<path fill="#000000" opacity="1.000000" stroke="none" 
	d="
M304.097595,140.828827 
	C308.131653,141.252014 309.975861,143.264206 309.050995,146.872223 
	C308.334259,149.668228 306.068298,150.712677 303.258331,150.070236 
	C301.326935,149.628662 300.103607,148.302383 299.850189,146.296906 
	C299.478790,143.358063 300.924164,141.624802 304.097595,140.828827 
z"/>
<path fill="#000000" opacity="1.000000" stroke="none" 
	d="
M400.886292,329.138794 
	C398.877869,327.337036 394.069519,327.573547 395.803162,324.088196 
	C397.729370,320.215729 400.502289,324.428833 402.937836,324.851471 
	C403.094574,324.878662 403.269775,324.959167 403.380005,325.070648 
	C405.004852,326.714142 409.913696,326.152496 408.021667,329.944336 
	C406.217621,333.559967 403.534088,329.675018 400.886292,329.138794 
z"/>
<path fill="#000000" opacity="1.000000" stroke="none" 
	d="
M160.790894,329.758911 
	C159.398712,330.370117 158.352798,330.923462 157.238953,331.229401 
	C155.903442,331.596222 155.054413,330.888306 154.520493,329.655518 
	C153.894653,328.210510 154.653503,327.461273 155.800339,326.894073 
	C158.338165,325.638916 160.891602,324.415375 163.432037,323.165466 
	C164.998764,322.394623 166.367859,322.391693 167.137329,324.224670 
	C167.801376,325.806488 166.940567,326.727234 165.586441,327.379761 
	C164.086365,328.102570 162.599609,328.853088 160.790894,329.758911 
z"/>
<path fill="#000000" opacity="1.000000" stroke="none" 
	d="
M239.350235,389.471619 
	C239.056015,393.317261 236.846390,396.080048 235.306442,399.136383 
	C234.643402,400.452362 233.547958,401.117310 232.054108,400.307098 
	C230.671341,399.557068 231.006912,398.415405 231.503296,397.320526 
	C232.589294,394.925140 233.725983,392.552765 234.829407,390.165222 
	C235.854767,387.946625 237.360077,387.882538 239.350235,389.471619 
z"/>
<path fill="#000000" opacity="1.000000" stroke="none" 
	d="
M327.703308,390.492706 
	C328.803650,393.128937 329.778076,395.419067 330.643768,397.749634 
	C331.124268,399.043182 330.609161,400.028381 329.311310,400.524261 
	C328.149597,400.968079 327.336670,400.353546 326.863129,399.414459 
	C325.669128,397.046509 324.547028,394.640747 323.455109,392.223511 
	C322.900940,390.996704 322.357605,389.682861 324.004364,388.783722 
	C325.713867,387.850281 326.836975,388.473938 327.703308,390.492706 
z"/>
<path fill="#000000" opacity="1.000000" stroke="none" 
	d="
M256.078979,406.223694 
	C259.755157,407.067139 259.242554,410.325714 260.204163,412.571533 
	C260.639832,413.588928 259.217194,414.558502 258.045502,414.907806 
	C256.478577,415.374878 254.913559,415.113892 254.053192,413.693268 
	C252.290237,410.782349 252.074875,408.044067 256.078979,406.223694 
z"/>
<path fill="#000000" opacity="1.000000" stroke="none" 
	d="
M391.043884,358.914215 
	C389.160187,357.518677 387.536774,356.349915 385.965454,355.114838 
	C384.900208,354.277527 383.772308,353.364441 384.889862,351.814911 
	C386.057068,350.196564 387.389191,350.565735 388.776520,351.552246 
	C390.404968,352.710266 392.101868,353.775055 393.696228,354.976898 
	C394.720306,355.748810 396.105591,356.531067 395.092651,358.184387 
	C394.177307,359.678375 392.929993,360.217987 391.043884,358.914215 
z"/>
<path fill="#000000" opacity="1.000000" stroke="none" 
	d="
M167.331467,356.195984 
	C169.307526,353.693329 171.812759,352.404205 174.155228,350.910339 
	C175.489517,350.059448 176.619568,350.385590 177.492203,351.741791 
	C178.294876,352.989227 177.863922,353.914459 176.825012,354.693146 
	C175.120758,355.970459 173.425293,357.263885 171.666199,358.462555 
	C169.192719,360.148010 167.715195,359.355316 167.331467,356.195984 
z"/>
<path fill="#000000" opacity="1.000000" stroke="none" 
	d="
M214.184387,385.043396 
	C213.478912,385.989929 213.042801,386.702393 212.472137,387.282471 
	C211.392258,388.380219 210.431778,390.380524 208.524414,388.750427 
	C206.969925,387.421906 208.310577,386.020142 209.067749,384.838989 
	C210.128479,383.184387 211.309540,381.600067 212.527725,380.055542 
	C213.414261,378.931519 214.303635,377.382782 216.096176,378.591644 
	C217.791306,379.734924 217.120865,381.126221 216.203430,382.416107 
	C215.633347,383.217682 214.998672,383.973297 214.184387,385.043396 
z"/>
<path fill="#000000" opacity="1.000000" stroke="none" 
	d="
M345.737488,379.466522 
	C347.046234,378.050018 348.254272,377.873077 349.281525,379.220551 
	C351.082764,381.583282 352.802551,384.009460 354.511322,386.440735 
	C355.120941,387.308228 355.346771,388.277954 354.355530,389.069550 
	C353.268402,389.937805 352.092957,389.915894 351.358795,388.731415 
	C349.482513,385.704315 346.203888,383.578491 345.737488,379.466522 
z"/>
<path fill="#000000" opacity="1.000000" stroke="none" 
	d="
M206.678360,167.642059 
	C206.882492,165.507187 208.217468,164.181183 209.560699,165.457123 
	C211.908218,167.687042 213.699097,170.520599 215.606918,173.184525 
	C216.151688,173.945175 215.599792,174.770477 214.880005,175.287491 
	C213.649170,176.171570 212.654312,175.548721 211.889435,174.601440 
	C210.133713,172.427032 208.461075,170.185562 206.678360,167.642059 
z"/>
<path fill="#000000" opacity="1.000000" stroke="none" 
	d="
M352.510071,172.470367 
	C351.516907,173.612640 350.813599,174.543106 349.974457,175.328445 
	C349.302155,175.957596 348.476379,175.888748 347.743347,175.290359 
	C347.026520,174.705170 346.714630,173.908646 347.122986,173.099792 
	C348.550598,170.271866 350.629883,167.918823 352.819977,165.668076 
	C353.491089,164.978333 354.324249,165.054520 355.055817,165.606567 
	C355.952515,166.283218 356.291748,167.208237 355.645721,168.191605 
	C354.741333,169.568253 353.715302,170.864990 352.510071,172.470367 
z"/>
<path fill="#000000" opacity="1.000000" stroke="none" 
	d="
M391.165985,197.455383 
	C392.884674,196.502151 394.232513,196.169220 395.417847,198.435486 
	C392.629120,201.104828 389.728455,203.669647 385.098053,205.050903 
	C385.022980,200.360550 388.741760,199.605896 391.165985,197.455383 
z"/>
<path fill="#000000" opacity="1.000000" stroke="none" 
	d="
M171.594513,201.409302 
	C170.172348,200.128601 168.314056,199.633377 168.383636,196.850464 
	C172.945740,197.669022 175.991257,200.116348 179.089127,203.691055 
	C175.348801,205.294037 173.938889,202.525711 171.594513,201.409302 
z"/>
<path fill="#000000" opacity="1.000000" stroke="none" 
	d="
M229.039658,156.326172 
	C230.648804,158.611847 232.894775,160.355774 231.886642,163.966995 
	C229.147202,161.915665 227.967224,159.408890 227.175964,156.800262 
	C226.822845,155.636078 227.962158,155.705917 229.039658,156.326172 
z"/>
<path fill="#000000" opacity="1.000000" stroke="none" 
	d="
M160.383820,229.761017 
	C158.372101,228.774933 156.481201,228.239883 154.369827,225.742310 
	C158.743835,225.498383 161.026367,227.378448 163.602463,228.837921 
	C162.598740,230.515472 161.640213,230.134842 160.383820,229.761017 
z"/>
<path fill="#000000" opacity="1.000000" stroke="none" 
	d="
M335.139526,155.813492 
	C336.309509,159.587570 333.306549,161.276566 331.512207,163.631332 
	C330.447418,160.015060 332.786835,157.983322 335.139526,155.813492 
z"/>
<path fill="#000000" opacity="1.000000" stroke="none" 
	d="
M406.773346,226.050720 
	C406.497437,229.228470 405.224274,230.006653 400.011292,230.196548 
	C401.540710,227.518982 404.054901,226.875946 406.773346,226.050720 
z"/>
</svg>